<?xml version="1.0" encoding="utf-8"?>
<!-- Generator: Adobe Illustrator 19.0.0, SVG Export Plug-In . SVG Version: 6.00 Build 0)  -->
<svg version="1.1" id="Layer_1" xmlns="http://www.w3.org/2000/svg" xmlns:xlink="http://www.w3.org/1999/xlink" x="0px" y="0px"
	 viewBox="0 0 22 22" style="enable-background:new 0 0 22 22;" xml:space="preserve">
<style type="text/css">
	.st0{fill:#291537;}
</style>
<path id="XMLID_1686_" class="st0" d="M6.9,2.6C7.9,1.2,9.4,0.5,11,0.5c1.6,0,3.1,0.7,4.2,2.1c0.9,1.1,1.4,2.6,1.4,4.2
	c0,0.6-0.1,1.2-0.2,1.8h-2.9c0.3-0.5,0.4-1.2,0.4-1.8c0-1.9-1.3-3.5-2.8-3.5c-1.6,0-2.8,1.6-2.8,3.5c0,0.7,0.2,1.3,0.4,1.8H5.7
	C5.5,8,5.4,7.4,5.4,6.7C5.4,5.2,5.9,3.7,6.9,2.6"/>
<path id="XMLID_1685_" class="st0" d="M18,20.3c0,0.6-0.5,1.2-1.2,1.2h-1.6v-6.9l-1.6,6.9H8.4l-1.6-6.9v6.9H5.2
	C4.5,21.5,4,21,4,20.3v-9.4c0-0.6,0.5-1.2,1.2-1.2h4.6l1.2,4.9h0l1.2-4.9h4.6c0.6,0,1.2,0.5,1.2,1.2V20.3z"/>
</svg>
